<?xml version="1.0" standalone="no"?>
<!DOCTYPE svg PUBLIC "-//W3C//DTD SVG 20010904//EN"
 "http://www.w3.org/TR/2001/REC-SVG-20010904/DTD/svg10.dtd">
<svg version="1.0" xmlns="http://www.w3.org/2000/svg"
 width="300.000000pt" height="300.000000pt" viewBox="0 0 300.000000 300.000000"
 preserveAspectRatio="xMidYMid meet">
<metadata>
Created by potrace 1.11, written by Peter Selinger 2001-2013
</metadata>
<g transform="translate(0.000000,300.000000) scale(0.100000,-0.100000)"
fill="#000000" stroke="none">
<path d="M2024 2508 c-75 -83 -128 -176 -207 -369 -8 -21 -5 -35 18 -83 33
-67 29 -81 -10 -31 -15 20 -29 34 -32 31 -3 -2 10 -23 28 -45 39 -50 31 -66
-14 -25 l-32 29 33 -35 c35 -40 39 -50 17 -50 -8 0 -24 13 -36 29 -23 32 -52
46 -111 57 -22 3 -38 12 -38 20 0 10 6 11 26 4 32 -12 34 -12 34 0 0 6 -9 10
-19 10 -11 0 -22 4 -26 9 -3 6 10 8 32 6 27 -3 31 -3 14 3 -22 7 -22 8 -7 21
40 34 44 59 37 228 -5 133 -10 166 -23 180 -16 15 -18 15 -37 -8 -39 -46 -108
-154 -115 -179 -4 -14 -17 -55 -28 -92 l-22 -68 25 -27 c21 -23 22 -25 4 -19
-45 17 -49 17 -25 -3 14 -11 28 -21 33 -21 4 0 7 -5 7 -11 0 -6 -9 -8 -21 -4
-15 5 -19 4 -15 -4 4 -6 14 -11 22 -11 23 0 16 -20 -8 -21 -22 -1 -22 -1 2 -8
23 -7 22 -8 -14 -14 -48 -8 -57 -2 -112 83 -23 36 -54 76 -68 89 -18 17 -26
35 -26 58 0 37 -19 82 -44 102 -12 10 -18 9 -32 -8 -16 -18 -19 -18 -29 -4 -7
10 -17 13 -25 8 -10 -6 -11 -31 -7 -103 6 -87 5 -97 -17 -136 -31 -52 -29
-144 4 -188 25 -33 19 -50 -17 -46 -22 3 -32 -8 -80 -87 -40 -64 -57 -103 -60
-136 -6 -50 -27 -69 -76 -69 -42 0 -67 -27 -67 -73 0 -51 -10 -69 -30 -57 -25
16 -36 11 -13 -5 30 -21 20 -40 -26 -54 -21 -6 -44 -18 -51 -26 -13 -16 -1
-21 16 -6 5 4 24 13 42 19 l32 11 0 -36 c0 -32 -2 -34 -17 -22 -12 9 -10 5 3
-11 35 -40 39 -67 11 -74 -13 -3 -30 -20 -40 -40 -9 -19 -40 -52 -69 -74 -69
-51 -107 -94 -157 -181 -23 -39 -46 -73 -51 -76 -6 -3 -10 -19 -10 -36 0 -16
-12 -50 -26 -76 -22 -40 -24 -53 -16 -74 24 -61 169 -127 396 -180 72 -17 165
-40 206 -52 92 -25 227 -28 263 -4 19 13 48 13 202 5 217 -11 228 -10 525 46
358 67 354 66 365 147 5 34 11 49 22 49 31 0 82 32 93 60 13 32 10 96 -5 93
-5 -1 -13 -18 -16 -38 -7 -41 -34 -75 -61 -75 -22 0 -24 25 -3 34 12 4 14 14
9 43 -4 21 -11 43 -16 50 -13 16 -29 182 -27 278 0 44 -2 99 -5 122 -9 63 -76
245 -134 364 -67 137 -120 196 -217 243 -41 21 -75 42 -75 47 0 12 6 11 41 -7
17 -8 33 -13 36 -10 3 3 -14 15 -38 26 -52 23 -33 26 36 5 27 -8 51 -12 54
-10 7 8 -66 35 -94 35 -16 0 -25 6 -25 16 0 12 3 14 13 6 19 -16 87 -26 87
-13 0 6 -15 11 -32 12 l-33 1 32 9 c59 17 63 32 63 254 0 204 -6 252 -38 293
l-18 23 -40 -43z"/>
</g>
</svg>
